<svg width="" height="" viewBox="0 0 21 15" fill="none" xmlns="http://www.w3.org/2000/svg">
<path d="M19.2162 4.82001L14.7704 0.484257C14.6636 0.380323 14.5365 0.297828 14.3965 0.241531C14.2566 0.185234 14.1064 0.15625 13.9547 0.15625C13.8031 0.15625 13.6529 0.185234 13.513 0.241531C13.373 0.297828 13.2459 0.380323 13.1391 0.484257C12.9251 0.692021 12.8051 0.973071 12.8051 1.26602C12.8051 1.55898 12.9251 1.84003 13.1391 2.04779L17.2288 6.0287L1.54527 6.0287C1.24059 6.0287 0.948394 6.14553 0.732956 6.35349C0.517517 6.56144 0.396484 6.84349 0.396484 7.13759C0.396484 7.43168 0.517517 7.71374 0.732956 7.92169C0.948394 8.12965 1.24059 8.24648 1.54527 8.24648H17.2977L13.1391 12.2496C13.0314 12.3527 12.946 12.4753 12.8877 12.6104C12.8293 12.7456 12.7993 12.8905 12.7993 13.0369C12.7993 13.1833 12.8293 13.3282 12.8877 13.4633C12.946 13.5985 13.0314 13.7211 13.1391 13.8242C13.2459 13.9281 13.373 14.0106 13.513 14.0669C13.6529 14.1232 13.8031 14.1522 13.9547 14.1522C14.1064 14.1522 14.2566 14.1232 14.3965 14.0669C14.5365 14.0106 14.6636 13.9281 14.7704 13.8242L19.2162 9.5217C19.8616 8.89795 20.2241 8.05242 20.2241 7.17086C20.2241 6.28929 19.8616 5.44376 19.2162 4.82001Z" fill=""/>
</svg>
