<svg width="" height="" viewBox="0 0 20 14" fill="none" xmlns="http://www.w3.org/2000/svg">
<path d="M1.17092 4.92193L5.42342 0.774684C5.52557 0.675268 5.6471 0.59636 5.78101 0.542511C5.91491 0.488661 6.05853 0.460938 6.20359 0.460938C6.34865 0.460938 6.49227 0.488661 6.62618 0.542511C6.76008 0.59636 6.88161 0.675268 6.98376 0.774684C7.18842 0.973414 7.3033 1.24224 7.3033 1.52246C7.3033 1.80268 7.18842 2.07151 6.98376 2.27024L3.07191 6.07806L18.0735 6.07806C18.365 6.07806 18.6444 6.18981 18.8505 6.38873C19.0566 6.58764 19.1724 6.85743 19.1724 7.13874C19.1724 7.42005 19.0566 7.68984 18.8505 7.88875C18.6444 8.08767 18.365 8.19941 18.0735 8.19941H3.00598L6.98376 12.0285C7.08676 12.1271 7.1685 12.2444 7.22429 12.3736C7.28008 12.5029 7.3088 12.6415 7.3088 12.7815C7.3088 12.9216 7.28008 13.0602 7.22429 13.1894C7.1685 13.3187 7.08676 13.436 6.98376 13.5346C6.88161 13.634 6.76008 13.7129 6.62618 13.7668C6.49227 13.8206 6.34865 13.8484 6.20359 13.8484C6.05853 13.8484 5.91491 13.8206 5.78101 13.7668C5.6471 13.7129 5.52557 13.634 5.42342 13.5346L1.17092 9.41919C0.553593 8.82256 0.206844 8.0138 0.206844 7.17056C0.206844 6.32732 0.553593 5.51856 1.17092 4.92193Z" fill="" fill-opacity=""/>
</svg>
