<svg width="" height="" viewBox="0 0 18 18" fill="none" xmlns="http://www.w3.org/2000/svg">
<path d="M17.2403 16.2469L13.0468 12.0534C14.1896 10.6557 14.7514 8.8723 14.6162 7.072C14.4809 5.27171 13.6588 3.59226 12.3201 2.38107C10.9813 1.16987 9.22815 0.519575 7.42334 0.564701C5.61853 0.609827 3.9001 1.34692 2.62351 2.62351C1.34692 3.9001 0.609827 5.61853 0.564701 7.42334C0.519575 9.22815 1.16987 10.9813 2.38107 12.3201C3.59226 13.6588 5.27171 14.4809 7.072 14.6162C8.8723 14.7514 10.6557 14.1896 12.0534 13.0468L16.2469 17.2403C16.3794 17.3683 16.5569 17.4391 16.7411 17.4375C16.9253 17.4359 17.1015 17.362 17.2317 17.2317C17.362 17.1015 17.4359 16.9253 17.4375 16.7411C17.4391 16.5569 17.3683 16.3794 17.2403 16.2469ZM7.61046 13.2308C6.49886 13.2308 5.41221 12.9012 4.48795 12.2836C3.56368 11.6661 2.8433 10.7883 2.41791 9.76129C1.99252 8.7343 1.88121 7.60423 2.09808 6.51398C2.31494 5.42374 2.85023 4.42228 3.63625 3.63625C4.42228 2.85023 5.42374 2.31494 6.51398 2.09808C7.60423 1.88121 8.7343 1.99252 9.76129 2.41791C10.7883 2.8433 11.6661 3.56368 12.2836 4.48795C12.9012 5.41221 13.2308 6.49886 13.2308 7.61046C13.2292 9.10057 12.6365 10.5292 11.5828 11.5828C10.5292 12.6365 9.10057 13.2292 7.61046 13.2308Z" fill="white"/>
</svg>
