<svg width="840" height="448" viewBox="0 0 840 448" fill="none" xmlns="http://www.w3.org/2000/svg">
<path d="M223.429 181V31.5382H280.5C295.484 31.5382 308.259 34.4038 318.824 40.1351C329.458 45.8664 337.606 54.2561 343.268 65.3044C348.93 76.2835 351.761 89.6795 351.761 105.492V105.699C351.761 121.512 348.93 135.046 343.268 146.302C337.675 157.557 329.561 166.154 318.927 172.092C308.293 178.031 295.484 181 280.5 181H223.429ZM254.71 155.106H276.771C286.093 155.106 293.965 153.241 300.387 149.513C306.809 145.784 311.642 140.26 314.888 132.94C318.202 125.621 319.86 116.575 319.86 105.803V105.596C319.86 95.1691 318.168 86.365 314.784 79.1837C311.47 72.0023 306.602 66.5818 300.18 62.9221C293.758 59.1933 285.955 57.3289 276.771 57.3289H254.71V155.106ZM476.468 181L405.829 104.146C400.028 97.8621 395.402 92.4761 391.949 87.9877C388.566 83.4304 386.149 79.3218 384.699 75.6621C383.249 71.9333 382.489 68.2045 382.42 64.4757V64.3722C382.42 57.6742 384.25 51.7012 387.91 46.4533C391.569 41.2054 396.61 37.0969 403.032 34.1276C409.454 31.0894 416.773 29.5702 424.99 29.5702C433.069 29.5702 440.216 31.0203 446.431 33.9205C452.645 36.8206 457.514 40.8256 461.035 45.9354C464.626 51.0452 466.421 56.9837 466.421 63.7507V63.8543C466.421 69.4474 465.04 74.7299 462.278 79.7016C459.585 84.6042 455.338 89.3342 449.538 93.8916C443.738 98.38 436.177 102.834 426.855 107.253L412.768 93.1666C419.397 90.1974 424.783 87.2972 428.926 84.4661C433.138 81.635 436.246 78.7003 438.248 75.6621C440.251 72.6238 441.252 69.3093 441.252 65.7187V65.6151C441.252 62.4387 440.561 59.6767 439.18 57.3289C437.799 54.9121 435.866 53.0477 433.38 51.7358C430.963 50.3547 428.132 49.6642 424.887 49.6642C421.779 49.6642 418.948 50.3547 416.393 51.7358C413.908 53.1168 411.94 55.0157 410.49 57.4325C409.039 59.8493 408.314 62.5768 408.314 65.6151V65.7187C408.314 68.2736 408.936 70.8285 410.179 73.3834C411.491 75.8692 413.528 78.7003 416.29 81.8767C419.052 85.0531 422.608 88.9545 426.958 93.5809L509.82 180.482V181H476.468ZM418.672 183.693C408.107 183.693 398.923 181.967 391.121 178.514C383.318 175.062 377.276 170.228 372.995 164.013C368.713 157.73 366.573 150.376 366.573 141.951V141.848C366.573 133.493 368.852 126.001 373.409 119.372C378.035 112.743 385.251 106.77 395.057 101.453L410.075 93.2702L425.197 108.496L411.732 116.161C405.587 119.682 401.237 123.308 398.682 127.036C396.127 130.765 394.849 134.874 394.849 139.362V139.466C394.849 143.954 395.954 147.855 398.164 151.17C400.443 154.484 403.619 157.074 407.693 158.938C411.767 160.802 416.462 161.735 421.779 161.735C426.958 161.735 431.792 160.975 436.28 159.456C440.838 157.937 444.912 155.865 448.502 153.241C452.162 150.548 455.304 147.51 457.928 144.127C461.933 139.017 464.937 133.009 466.939 126.104C468.942 119.13 469.943 111.051 469.943 101.867V97.1025H495.112V103.11C495.112 115.608 493.351 126.691 489.83 136.358C486.377 145.956 481.302 154.277 474.604 161.32C468.044 168.295 460.068 173.784 450.677 177.789C441.286 181.725 430.618 183.693 418.672 183.693ZM563.577 183.589C555.843 183.589 548.903 182.519 542.758 180.379C536.681 178.169 531.468 175.027 527.117 170.953C522.767 166.879 519.418 162.011 517.07 156.349C514.723 150.617 513.445 144.23 513.238 137.187L513.134 136.255H543.483L543.586 136.876C543.793 140.743 544.656 144.161 546.176 147.13C547.764 150.099 549.973 152.413 552.805 154.07C555.705 155.727 559.192 156.556 563.266 156.556C569.826 156.556 574.832 154.588 578.284 150.652C581.737 146.716 583.463 140.985 583.463 133.458V31.5382H614.744V133.769C614.744 144.196 612.707 153.138 608.633 160.595C604.628 168.053 598.827 173.75 591.232 177.686C583.636 181.621 574.418 183.589 563.577 183.589Z" fill="#FF0800"/>
<path d="M6.62894 331V251.287H37.0668C45.0584 251.287 51.8714 252.815 57.506 255.872C63.1774 258.929 67.5231 263.403 70.5429 269.296C73.5628 275.151 75.0727 282.296 75.0727 290.729V290.84C75.0727 299.273 73.5628 306.491 70.5429 312.494C67.5599 318.497 63.2327 323.082 57.5613 326.249C51.8898 329.416 45.0584 331 37.0668 331H6.62894ZM23.3118 317.19H35.0781C40.0498 317.19 44.2482 316.195 47.6731 314.207C51.0981 312.218 53.676 309.272 55.4069 305.368C57.1746 301.464 58.0584 296.64 58.0584 290.895V290.784C58.0584 285.224 57.1562 280.528 55.3516 276.698C53.5839 272.868 50.9876 269.977 47.5626 268.025C44.1377 266.036 39.9762 265.042 35.0781 265.042H23.3118V317.19ZM87.5417 331V251.287H140.352V265.042H104.225V284.156H138.308V297.192H104.225V317.245H140.352V331H87.5417ZM154.092 331V251.287H170.775V317.245H205.632V331H154.092ZM226.111 331V265.042H203.075V251.287H265.884V265.042H242.794V331H226.111ZM261.008 331L288.849 251.287H303.543V266.755H298.461L278.519 331H261.008ZM275.978 311.666L280.066 299.181H317.243L321.331 311.666H275.978ZM318.735 331L298.793 266.755V251.287H308.46L336.246 331H318.735ZM424.285 331L386.611 290.011C383.517 286.66 381.05 283.787 379.208 281.393C377.404 278.963 376.115 276.772 375.341 274.82C374.568 272.831 374.163 270.842 374.126 268.854V268.798C374.126 265.226 375.102 262.041 377.054 259.242C379.006 256.443 381.694 254.252 385.119 252.668C388.544 251.048 392.448 250.237 396.83 250.237C401.139 250.237 404.951 251.011 408.265 252.558C411.58 254.104 414.176 256.24 416.054 258.966C417.969 261.691 418.927 264.858 418.927 268.467V268.522C418.927 271.505 418.19 274.323 416.717 276.974C415.281 279.589 413.016 282.112 409.922 284.542C406.829 286.936 402.796 289.311 397.825 291.668L390.312 284.156C393.847 282.572 396.72 281.025 398.929 279.515C401.176 278.005 402.833 276.44 403.901 274.82C404.969 273.199 405.503 271.432 405.503 269.517V269.461C405.503 267.767 405.135 266.294 404.398 265.042C403.662 263.753 402.631 262.759 401.305 262.059C400.016 261.323 398.506 260.954 396.775 260.954C395.118 260.954 393.608 261.323 392.245 262.059C390.919 262.796 389.87 263.808 389.096 265.097C388.323 266.386 387.936 267.841 387.936 269.461V269.517C387.936 270.879 388.268 272.242 388.931 273.604C389.63 274.93 390.717 276.44 392.19 278.134C393.663 279.828 395.56 281.909 397.88 284.376L442.073 330.724V331H424.285ZM393.461 332.436C387.826 332.436 382.928 331.516 378.766 329.674C374.605 327.833 371.382 325.255 369.099 321.94C366.816 318.589 365.674 314.667 365.674 310.174V310.119C365.674 305.663 366.89 301.667 369.32 298.132C371.788 294.596 375.636 291.411 380.866 288.575L388.876 284.211L396.941 292.331L389.759 296.419C386.482 298.297 384.162 300.231 382.799 302.219C381.436 304.208 380.755 306.399 380.755 308.793V308.848C380.755 311.242 381.344 313.323 382.523 315.091C383.738 316.858 385.432 318.239 387.605 319.234C389.778 320.228 392.282 320.725 395.118 320.725C397.88 320.725 400.458 320.32 402.852 319.51C405.282 318.7 407.455 317.595 409.37 316.195C411.322 314.759 412.997 313.139 414.397 311.334C416.533 308.609 418.135 305.405 419.203 301.722C420.271 298.003 420.805 293.694 420.805 288.796V286.255H434.228V289.459C434.228 296.124 433.289 302.035 431.411 307.191C429.57 312.31 426.863 316.748 423.291 320.504C419.792 324.224 415.539 327.152 410.53 329.288C405.522 331.387 399.832 332.436 393.461 332.436ZM492.397 332.381C488.273 332.381 484.572 331.81 481.294 330.669C478.053 329.49 475.273 327.814 472.953 325.642C470.632 323.469 468.846 320.872 467.594 317.853C466.342 314.796 465.661 311.389 465.55 307.633L465.495 307.136H481.681L481.736 307.467C481.846 309.53 482.307 311.353 483.117 312.936C483.964 314.52 485.142 315.753 486.652 316.637C488.199 317.521 490.059 317.963 492.232 317.963C495.73 317.963 498.4 316.914 500.242 314.814C502.083 312.715 503.004 309.659 503.004 305.644V251.287H519.687V305.81C519.687 311.371 518.6 316.14 516.427 320.117C514.291 324.095 511.198 327.133 507.147 329.232C503.096 331.331 498.179 332.381 492.397 332.381ZM568.725 332.381C561.912 332.381 556.001 331.147 550.993 328.68C546.021 326.212 542.154 322.769 539.392 318.35C536.667 313.894 535.304 308.719 535.304 302.827V251.287H551.987V301.336C551.987 304.76 552.632 307.743 553.921 310.285C555.246 312.789 557.143 314.741 559.61 316.14C562.115 317.54 565.153 318.239 568.725 318.239C572.297 318.239 575.317 317.54 577.785 316.14C580.289 314.741 582.186 312.789 583.475 310.285C584.764 307.743 585.408 304.76 585.408 301.336V251.287H602.091V302.827C602.091 308.719 600.728 313.894 598.003 318.35C595.315 322.769 591.466 326.212 586.458 328.68C581.486 331.147 575.575 332.381 568.725 332.381ZM617.101 331V251.287H633.784V317.245H668.641V331H617.101ZM680.226 331V251.287H696.909V331H680.226ZM711.864 331V251.287H764.674V265.042H728.547V284.156H762.63V297.192H728.547V317.245H764.674V331H711.864ZM797.472 331V265.042H774.437V251.287H837.246V265.042H814.155V331H797.472Z" fill="#FF0800"/>
<path d="M8.6875 405.21V375.318H14.0321V387.747H28.5743V375.318H33.8982V405.21H28.5743V392.242H14.0321V405.21H8.6875ZM141.873 405.728C138.959 405.728 136.438 405.099 134.312 403.843C132.199 402.586 130.562 400.804 129.402 398.498C128.256 396.178 127.683 393.437 127.683 390.274V390.233C127.683 387.07 128.263 384.336 129.423 382.029C130.583 379.723 132.219 377.942 134.332 376.685C136.459 375.428 138.973 374.8 141.873 374.8C144.773 374.8 147.279 375.428 149.392 376.685C151.519 377.942 153.156 379.723 154.302 382.029C155.462 384.336 156.042 387.07 156.042 390.233V390.274C156.042 393.437 155.462 396.178 154.302 398.498C153.156 400.804 151.526 402.586 149.413 403.843C147.3 405.099 144.787 405.728 141.873 405.728ZM141.873 401.108C143.682 401.108 145.236 400.666 146.534 399.783C147.846 398.885 148.854 397.628 149.558 396.012C150.263 394.383 150.615 392.47 150.615 390.274V390.233C150.615 388.023 150.256 386.11 149.537 384.495C148.833 382.865 147.825 381.615 146.513 380.745C145.201 379.861 143.654 379.419 141.873 379.419C140.105 379.419 138.558 379.861 137.233 380.745C135.921 381.615 134.905 382.858 134.187 384.474C133.483 386.09 133.131 388.009 133.131 390.233V390.274C133.131 392.484 133.483 394.403 134.187 396.033C134.905 397.649 135.921 398.899 137.233 399.783C138.544 400.666 140.091 401.108 141.873 401.108ZM249.827 405.21V375.318H255.171V400.715H268.719V405.21H249.827ZM362.089 405.21V375.318H367.434V405.21H362.089ZM462.213 405.21V375.318H473.13C476.113 375.318 478.661 375.898 480.774 377.058C482.887 378.218 484.509 379.903 485.642 382.112C486.774 384.322 487.341 387.001 487.341 390.15V390.191C487.341 393.34 486.774 396.04 485.642 398.291C484.523 400.528 482.901 402.241 480.774 403.428C478.661 404.616 476.113 405.21 473.13 405.21H462.213ZM467.557 400.715H472.57C474.587 400.715 476.285 400.314 477.666 399.513C479.048 398.698 480.097 397.518 480.815 395.971C481.533 394.41 481.892 392.491 481.892 390.212V390.171C481.892 387.947 481.526 386.062 480.795 384.515C480.076 382.968 479.02 381.802 477.625 381.014C476.244 380.213 474.559 379.813 472.57 379.813H467.557V400.715ZM577.956 405.21L588.645 375.318H593.14V380.641H591.586L583.549 405.21H577.956ZM583.362 397.483L584.792 393.361H598.485L599.914 397.483H583.362ZM599.728 405.21L591.69 380.641V375.318H594.652L605.321 405.21H599.728ZM702.482 405.21V393.423L692 375.318H697.842L705.071 388.327H705.216L712.446 375.318H718.288L707.806 393.423V405.21H702.482ZM810.249 405.21V401.647L826.159 379.916V379.813H810.684V375.318H832.581V378.86L816.754 400.611V400.715H832.974V405.21H810.249Z" fill="#FF0800"/>
</svg>
