<svg width="1500" height="1500" viewBox="0 0 1500 1500" fill="none" xmlns="http://www.w3.org/2000/svg">
<rect width="1500" height="1500" fill="#FF0800"/>
<path d="M540.263 726.162V566.671H601.164C617.153 566.671 630.785 569.729 642.059 575.845C653.406 581.961 662.101 590.914 668.143 602.703C674.185 614.419 677.206 628.714 677.206 645.588V645.809C677.206 662.683 674.185 677.125 668.143 689.136C662.175 701.146 653.517 710.32 642.169 716.657C630.822 722.994 617.153 726.162 601.164 726.162H540.263ZM573.642 698.53H597.185C607.132 698.53 615.532 696.541 622.385 692.562C629.238 688.583 634.396 682.688 637.859 674.878C641.396 667.067 643.164 657.414 643.164 645.919V645.698C643.164 634.572 641.359 625.177 637.748 617.514C634.211 609.851 629.017 604.066 622.164 600.161C615.311 596.182 606.985 594.193 597.185 594.193H573.642V698.53ZM810.281 726.162L734.901 644.151C728.712 637.446 723.775 631.698 720.091 626.909C716.48 622.046 713.901 617.661 712.354 613.756C710.807 609.777 709.996 605.798 709.922 601.819V601.709C709.922 594.561 711.875 588.187 715.78 582.587C719.686 576.987 725.065 572.603 731.917 569.435C738.77 566.193 746.581 564.571 755.349 564.571C763.97 564.571 771.597 566.119 778.228 569.214C784.86 572.308 790.055 576.582 793.812 582.035C797.644 587.487 799.56 593.824 799.56 601.045V601.156C799.56 607.124 798.086 612.761 795.139 618.067C792.265 623.298 787.733 628.346 781.544 633.209C775.354 637.998 767.286 642.751 757.339 647.467L742.307 632.435C749.381 629.267 755.128 626.172 759.549 623.151C764.044 620.13 767.36 616.998 769.496 613.756C771.633 610.514 772.702 606.977 772.702 603.145V603.035C772.702 599.645 771.965 596.698 770.491 594.193C769.018 591.614 766.954 589.624 764.302 588.224C761.723 586.751 758.702 586.014 755.238 586.014C751.923 586.014 748.902 586.751 746.175 588.224C743.523 589.698 741.423 591.724 739.875 594.303C738.328 596.882 737.554 599.793 737.554 603.035V603.145C737.554 605.872 738.217 608.598 739.544 611.324C740.944 613.977 743.117 616.998 746.065 620.388C749.012 623.777 752.807 627.94 757.449 632.877L845.871 725.609V726.162H810.281ZM748.607 729.036C737.333 729.036 727.533 727.194 719.207 723.509C710.88 719.825 704.433 714.667 699.864 708.036C695.296 701.33 693.012 693.483 693.012 684.493V684.383C693.012 675.467 695.443 667.472 700.307 660.398C705.243 653.325 712.943 646.951 723.407 641.277L739.433 632.546L755.57 648.793L741.202 656.972C734.644 660.73 730.001 664.599 727.275 668.577C724.549 672.556 723.186 676.941 723.186 681.73V681.841C723.186 686.63 724.365 690.793 726.722 694.33C729.154 697.867 732.544 700.63 736.891 702.62C741.238 704.609 746.249 705.604 751.923 705.604C757.449 705.604 762.607 704.794 767.396 703.172C772.26 701.551 776.607 699.341 780.439 696.541C784.344 693.667 787.697 690.425 790.497 686.814C794.77 681.362 797.976 674.951 800.112 667.583C802.249 660.141 803.318 651.519 803.318 641.719V636.635H830.176V643.046C830.176 656.383 828.297 668.209 824.539 678.525C820.855 688.767 815.439 697.646 808.292 705.162C801.291 712.604 792.781 718.462 782.76 722.736C772.739 726.936 761.354 729.036 748.607 729.036ZM903.234 728.925C894.982 728.925 887.576 727.783 881.018 725.499C874.534 723.141 868.971 719.788 864.329 715.441C859.687 711.094 856.113 705.899 853.608 699.857C851.102 693.741 849.739 686.925 849.518 679.409L849.408 678.414H881.792L881.903 679.078C882.124 683.204 883.045 686.851 884.666 690.02C886.361 693.188 888.718 695.657 891.739 697.425C894.834 699.193 898.555 700.078 902.903 700.078C909.903 700.078 915.245 697.978 918.929 693.778C922.613 689.578 924.456 683.462 924.456 675.43V566.671H957.835V675.762C957.835 686.888 955.661 696.43 951.314 704.388C947.04 712.346 940.85 718.425 932.745 722.625C924.64 726.825 914.803 728.925 903.234 728.925Z" fill="white"/>
<g clip-path="url(#clip0_197_459)">
<path d="M308.574 874.616V789.555H341.054C349.582 789.555 356.852 791.185 362.865 794.447C368.917 797.709 373.554 802.484 376.776 808.772C379.999 815.02 381.61 822.644 381.61 831.643V831.761C381.61 840.761 379.999 848.463 376.776 854.869C373.593 861.274 368.976 866.167 362.924 869.547C356.872 872.926 349.582 874.616 341.054 874.616H308.574ZM326.376 859.879H338.932C344.237 859.879 348.717 858.818 352.372 856.696C356.027 854.574 358.778 851.43 360.625 847.264C362.511 843.099 363.454 837.951 363.454 831.82V831.702C363.454 825.768 362.491 820.758 360.566 816.671C358.679 812.583 355.909 809.499 352.254 807.416C348.599 805.294 344.159 804.233 338.932 804.233H326.376V859.879ZM394.916 874.616V789.555H451.27V804.233H412.718V824.628H449.089V838.54H412.718V859.938H451.27V874.616H394.916ZM465.931 874.616V789.555H483.734V859.938H520.93V874.616H465.931ZM542.783 874.616V804.233H518.202V789.555H585.225V804.233H560.585V874.616H542.783ZM580.021 874.616L609.731 789.555H625.411V806.06H619.988L598.708 874.616H580.021ZM595.996 853.984L600.358 840.662H640.03L644.392 853.984H595.996ZM641.622 874.616L620.342 806.06V789.555H630.657L660.308 874.616H641.622ZM754.254 874.616L714.052 830.877C710.751 827.301 708.118 824.235 706.153 821.681C704.227 819.087 702.852 816.749 702.027 814.666C701.201 812.544 700.769 810.422 700.73 808.3V808.241C700.73 804.429 701.771 801.03 703.854 798.043C705.937 795.056 708.806 792.718 712.46 791.028C716.115 789.299 720.281 788.435 724.957 788.435C729.555 788.435 733.623 789.26 737.16 790.91C740.696 792.561 743.467 794.84 745.471 797.748C747.515 800.656 748.537 804.036 748.537 807.887V807.946C748.537 811.129 747.751 814.136 746.179 816.965C744.646 819.755 742.229 822.447 738.928 825.041C735.627 827.596 731.324 830.13 726.018 832.645L718.002 824.628C721.774 822.939 724.84 821.288 727.197 819.677C729.595 818.066 731.363 816.395 732.503 814.666C733.642 812.937 734.212 811.051 734.212 809.007V808.948C734.212 807.141 733.819 805.569 733.033 804.233C732.247 802.857 731.147 801.796 729.732 801.049C728.357 800.263 726.745 799.87 724.898 799.87C723.13 799.87 721.519 800.263 720.065 801.049C718.65 801.835 717.53 802.916 716.705 804.291C715.879 805.667 715.467 807.219 715.467 808.948V809.007C715.467 810.461 715.82 811.915 716.528 813.369C717.275 814.784 718.434 816.395 720.006 818.203C721.578 820.011 723.602 822.231 726.077 824.864L773.236 874.321V874.616H754.254ZM721.362 876.149C715.349 876.149 710.122 875.166 705.681 873.201C701.241 871.237 697.802 868.486 695.366 864.949C692.929 861.373 691.711 857.187 691.711 852.393V852.334C691.711 847.579 693.008 843.315 695.601 839.542C698.234 835.77 702.341 832.37 707.921 829.344L716.469 824.687L725.075 833.353L717.412 837.715C713.915 839.719 711.439 841.782 709.985 843.904C708.531 846.027 707.804 848.365 707.804 850.919V850.978C707.804 853.533 708.432 855.753 709.69 857.639C710.987 859.526 712.795 860.999 715.113 862.06C717.432 863.121 720.104 863.652 723.13 863.652C726.077 863.652 728.828 863.22 731.383 862.355C733.976 861.491 736.295 860.312 738.339 858.818C740.421 857.286 742.209 855.556 743.703 853.631C745.982 850.723 747.692 847.304 748.831 843.374C749.971 839.405 750.541 834.807 750.541 829.58V826.868H764.865V830.287C764.865 837.401 763.863 843.708 761.859 849.21C759.894 854.672 757.005 859.408 753.193 863.416C749.46 867.385 744.921 870.51 739.576 872.789C734.232 875.029 728.16 876.149 721.362 876.149ZM826.937 876.09C822.536 876.09 818.586 875.481 815.089 874.263C811.63 873.005 808.663 871.217 806.187 868.898C803.712 866.58 801.806 863.809 800.47 860.587C799.133 857.325 798.406 853.69 798.288 849.681L798.23 849.151H815.501L815.56 849.504C815.678 851.705 816.169 853.65 817.034 855.34C817.938 857.03 819.195 858.347 820.807 859.29C822.457 860.233 824.442 860.705 826.76 860.705C830.494 860.705 833.343 859.585 835.308 857.345C837.273 855.104 838.255 851.843 838.255 847.559V789.555H856.057V847.736C856.057 853.67 854.898 858.759 852.579 863.003C850.3 867.248 846.999 870.49 842.676 872.73C838.353 874.97 833.107 876.09 826.937 876.09ZM908.386 876.09C901.116 876.09 894.809 874.773 889.464 872.14C884.159 869.507 880.033 865.833 877.085 861.117C874.177 856.362 872.723 850.841 872.723 844.553V789.555H890.525V842.961C890.525 846.616 891.213 849.799 892.588 852.511C894.003 855.183 896.027 857.266 898.66 858.759C901.332 860.253 904.574 860.999 908.386 860.999C912.198 860.999 915.421 860.253 918.054 858.759C920.726 857.266 922.75 855.183 924.126 852.511C925.501 849.799 926.189 846.616 926.189 842.961V789.555H943.991V844.553C943.991 850.841 942.537 856.362 939.629 861.117C936.76 865.833 932.653 869.507 927.309 872.14C922.003 874.773 915.696 876.09 908.386 876.09ZM960.008 874.616V789.555H977.81V859.938H1015.01V874.616H960.008ZM1027.37 874.616V789.555H1045.17V874.616H1027.37ZM1061.13 874.616V789.555H1117.48V804.233H1078.93V824.628H1115.3V838.54H1078.93V859.938H1117.48V874.616H1061.13ZM1152.48 874.616V804.233H1127.9V789.555H1194.92V804.233H1170.28V874.616H1152.48Z" fill="white"/>
<path d="M318.573 953.838V926.737H309.023V921.94H333.781V926.737H324.254V953.838H318.573ZM387.118 954.391C384.008 954.391 381.319 953.72 379.049 952.379C376.795 951.038 375.048 949.137 373.81 946.676C372.587 944.2 371.976 941.275 371.976 937.9V937.856C371.976 934.481 372.595 931.563 373.833 929.102C375.07 926.641 376.817 924.74 379.072 923.399C381.341 922.058 384.023 921.388 387.118 921.388C390.213 921.388 392.887 922.058 395.142 923.399C397.412 924.74 399.158 926.641 400.381 929.102C401.619 931.563 402.238 934.481 402.238 937.856V937.9C402.238 941.275 401.619 944.2 400.381 946.676C399.158 949.137 397.419 951.038 395.164 952.379C392.91 953.72 390.227 954.391 387.118 954.391ZM387.118 949.462C389.048 949.462 390.706 948.99 392.092 948.047C393.492 947.089 394.567 945.748 395.319 944.024C396.071 942.285 396.446 940.244 396.446 937.9V937.856C396.446 935.498 396.063 933.457 395.297 931.733C394.545 929.994 393.47 928.66 392.069 927.732C390.669 926.789 389.019 926.317 387.118 926.317C385.232 926.317 383.581 926.789 382.166 927.732C380.766 928.66 379.683 929.987 378.917 931.711C378.165 933.435 377.789 935.484 377.789 937.856V937.9C377.789 940.258 378.165 942.307 378.917 944.046C379.683 945.77 380.766 947.104 382.166 948.047C383.566 948.99 385.217 949.462 387.118 949.462ZM455.287 954.391C452.591 954.391 450.262 953.897 448.302 952.91C446.342 951.923 444.824 950.545 443.748 948.776C442.687 947.008 442.157 944.945 442.157 942.587V921.94H447.86V942.123C447.86 943.596 448.147 944.886 448.722 945.991C449.312 947.081 450.159 947.936 451.264 948.555C452.37 949.159 453.711 949.462 455.287 949.462C456.864 949.462 458.205 949.159 459.311 948.555C460.416 947.936 461.256 947.081 461.831 945.991C462.405 944.886 462.693 943.596 462.693 942.123V921.94H468.374V942.587C468.374 944.93 467.843 946.993 466.782 948.776C465.736 950.545 464.233 951.923 462.273 952.91C460.313 953.897 457.984 954.391 455.287 954.391ZM509.398 953.838V921.94H522.131C524.4 921.94 526.353 922.346 527.989 923.156C529.624 923.952 530.884 925.094 531.769 926.582C532.653 928.071 533.095 929.839 533.095 931.888V931.932C533.095 934.084 532.55 935.97 531.459 937.591C530.383 939.212 528.924 940.361 527.082 941.039L534.046 953.838H527.547L521.269 941.901C521.224 941.901 521.173 941.901 521.114 941.901C521.07 941.901 521.025 941.901 520.981 941.901H515.101V953.838H509.398ZM515.101 937.392H521.534C523.347 937.392 524.754 936.92 525.756 935.977C526.758 935.019 527.259 933.686 527.259 931.976V931.932C527.259 930.267 526.736 928.955 525.69 927.997C524.643 927.025 523.221 926.538 521.423 926.538H515.101V937.392ZM584.266 954.391C581.819 954.391 579.682 954.023 577.855 953.286C576.028 952.549 574.583 951.495 573.522 950.125C572.476 948.754 571.886 947.118 571.754 945.217L571.732 944.886H577.17L577.214 945.151C577.376 946.065 577.774 946.853 578.408 947.516C579.041 948.179 579.874 948.695 580.905 949.064C581.952 949.417 583.138 949.594 584.464 949.594C585.806 949.594 586.962 949.41 587.935 949.042C588.922 948.673 589.681 948.15 590.212 947.472C590.742 946.779 591.008 945.976 591.008 945.063V945.04C591.008 943.847 590.558 942.904 589.659 942.211C588.775 941.518 587.301 940.951 585.238 940.509L581.812 939.801C578.688 939.153 576.344 938.092 574.782 936.618C573.22 935.13 572.439 933.199 572.439 930.827V930.805C572.454 928.918 572.962 927.275 573.964 925.875C574.981 924.46 576.381 923.362 578.164 922.581C579.948 921.786 581.981 921.388 584.266 921.388C586.579 921.388 588.606 921.771 590.344 922.537C592.083 923.303 593.447 924.372 594.434 925.742C595.436 927.113 595.989 928.705 596.092 930.517L596.114 930.893H590.676L590.632 930.606C590.499 929.677 590.153 928.889 589.593 928.24C589.033 927.577 588.296 927.069 587.382 926.715C586.469 926.361 585.415 926.184 584.221 926.184C582.983 926.184 581.908 926.369 580.994 926.737C580.095 927.091 579.395 927.592 578.894 928.24C578.408 928.889 578.164 929.64 578.164 930.495V930.517C578.164 931.637 578.614 932.551 579.513 933.258C580.427 933.951 581.841 934.496 583.757 934.894L587.183 935.601C589.409 936.058 591.221 936.677 592.621 937.458C594.021 938.239 595.053 939.219 595.716 940.398C596.394 941.577 596.733 942.992 596.733 944.643V944.665C596.733 946.639 596.232 948.356 595.23 949.815C594.242 951.274 592.813 952.402 590.941 953.197C589.084 953.993 586.859 954.391 584.266 954.391Z" fill="white"/>
<path d="M698.138 953.838L682.709 937.016C681.559 935.749 680.631 934.658 679.923 933.745C679.231 932.816 678.73 931.961 678.42 931.18C678.126 930.399 677.971 929.611 677.956 928.815V928.793C677.956 927.393 678.332 926.14 679.083 925.035C679.835 923.93 680.867 923.06 682.178 922.427C683.49 921.793 684.986 921.476 686.666 921.476C688.331 921.476 689.805 921.786 691.087 922.404C692.369 923.009 693.378 923.856 694.115 924.947C694.852 926.022 695.22 927.275 695.22 928.705V928.727C695.22 929.891 694.94 930.981 694.38 931.998C693.835 933.015 692.951 934.002 691.728 934.96C690.519 935.904 688.92 936.854 686.931 937.812L684.234 935.093C685.737 934.4 686.938 933.737 687.837 933.103C688.751 932.47 689.414 931.829 689.827 931.18C690.254 930.517 690.468 929.795 690.468 929.014V928.992C690.468 928.27 690.306 927.636 689.981 927.091C689.657 926.546 689.208 926.118 688.633 925.809C688.073 925.499 687.417 925.344 686.666 925.344C685.929 925.344 685.273 925.507 684.698 925.831C684.123 926.14 683.667 926.575 683.328 927.135C683.003 927.68 682.841 928.314 682.841 929.036V929.058C682.841 929.618 682.981 930.178 683.261 930.738C683.541 931.298 683.976 931.925 684.566 932.617C685.155 933.31 685.914 934.15 686.842 935.137L704.416 953.728V953.838H698.138ZM685.494 954.391C683.298 954.391 681.375 954.023 679.724 953.286C678.074 952.534 676.792 951.488 675.878 950.147C674.979 948.806 674.53 947.244 674.53 945.46V945.438C674.53 943.611 675.031 941.99 676.033 940.575C677.035 939.146 678.582 937.864 680.675 936.729L683.659 935.115L686.511 938.033L683.792 939.58C682.348 940.406 681.316 941.253 680.697 942.123C680.093 942.992 679.791 943.95 679.791 944.996V945.018C679.791 946.05 680.049 946.956 680.564 947.737C681.095 948.518 681.832 949.13 682.775 949.572C683.718 949.999 684.809 950.213 686.047 950.213C687.226 950.213 688.316 950.051 689.318 949.727C690.32 949.403 691.219 948.946 692.015 948.356C692.826 947.767 693.518 947.074 694.093 946.278C694.933 945.144 695.567 943.795 695.994 942.233C696.421 940.671 696.635 938.888 696.635 936.884V935.889H701.388V937.06C701.388 939.713 701.027 942.086 700.305 944.178C699.597 946.256 698.573 948.047 697.232 949.55C695.861 951.083 694.189 952.276 692.214 953.131C690.239 953.971 687.999 954.391 685.494 954.391Z" fill="white"/>
<path d="M783.329 953.349V926.248H773.78V921.451H798.538V926.248H789.01V953.349H783.329ZM837.816 953.349V921.451H850.548C852.818 921.451 854.771 921.856 856.406 922.667C858.042 923.463 859.302 924.605 860.186 926.093C861.071 927.582 861.513 929.35 861.513 931.398V931.443C861.513 933.594 860.967 935.481 859.877 937.102C858.801 938.723 857.342 939.872 855.5 940.55L862.463 953.349H855.964L849.686 941.412C849.642 941.412 849.59 941.412 849.532 941.412C849.487 941.412 849.443 941.412 849.399 941.412H843.519V953.349H837.816ZM843.519 936.903H849.952C851.764 936.903 853.172 936.431 854.174 935.488C855.176 934.53 855.677 933.196 855.677 931.487V931.443C855.677 929.777 855.154 928.466 854.107 927.508C853.061 926.535 851.639 926.049 849.841 926.049H843.519V936.903ZM899.265 953.349L910.672 921.451H915.468V927.132H913.811L905.234 953.349H899.265ZM905.035 945.104L906.56 940.705H921.172L922.697 945.104H905.035ZM922.498 953.349L913.921 927.132V921.451H917.082L928.466 953.349H922.498ZM976.122 953.349L965.047 921.451H971.259L979.35 947.27H979.46L987.573 921.451H993.784L982.71 953.349H976.122ZM1032.55 953.349V921.451H1053.2V926.248H1038.26V934.847H1052.38V939.445H1038.26V948.552H1053.2V953.349H1032.55ZM1093.52 953.349V921.451H1099.22V948.552H1113.68V953.349H1093.52ZM1164.36 953.902C1161.92 953.902 1159.78 953.533 1157.95 952.796C1156.12 952.06 1154.68 951.006 1153.62 949.635C1152.57 948.265 1151.98 946.629 1151.85 944.728L1151.83 944.396H1157.27L1157.31 944.662C1157.47 945.575 1157.87 946.364 1158.5 947.027C1159.14 947.69 1159.97 948.206 1161 948.574C1162.05 948.928 1163.23 949.105 1164.56 949.105C1165.9 949.105 1167.06 948.921 1168.03 948.552C1169.02 948.184 1169.78 947.661 1170.31 946.983C1170.84 946.29 1171.1 945.487 1171.1 944.573V944.551C1171.1 943.357 1170.65 942.414 1169.76 941.722C1168.87 941.029 1167.4 940.462 1165.33 940.02L1161.91 939.312C1158.78 938.664 1156.44 937.603 1154.88 936.129C1153.32 934.641 1152.53 932.71 1152.53 930.337V930.315C1152.55 928.429 1153.06 926.786 1154.06 925.386C1155.08 923.971 1156.48 922.873 1158.26 922.092C1160.04 921.296 1162.08 920.898 1164.36 920.898C1166.68 920.898 1168.7 921.282 1170.44 922.048C1172.18 922.814 1173.54 923.883 1174.53 925.253C1175.53 926.624 1176.08 928.215 1176.19 930.028L1176.21 930.404H1170.77L1170.73 930.116C1170.6 929.188 1170.25 928.399 1169.69 927.751C1169.13 927.088 1168.39 926.579 1167.48 926.226C1166.56 925.872 1165.51 925.695 1164.32 925.695C1163.08 925.695 1162 925.879 1161.09 926.248C1160.19 926.602 1159.49 927.103 1158.99 927.751C1158.5 928.399 1158.26 929.151 1158.26 930.006V930.028C1158.26 931.148 1158.71 932.062 1159.61 932.769C1160.52 933.462 1161.94 934.007 1163.85 934.405L1167.28 935.112C1169.5 935.569 1171.32 936.188 1172.72 936.969C1174.12 937.75 1175.15 938.73 1175.81 939.909C1176.49 941.088 1176.83 942.503 1176.83 944.153V944.175C1176.83 946.15 1176.33 947.867 1175.33 949.326C1174.34 950.785 1172.91 951.912 1171.04 952.708C1169.18 953.504 1166.96 953.902 1164.36 953.902Z" fill="white"/>
</g>
<defs>
<clipPath id="clip0_197_459">
<rect width="897" height="220.222" fill="white" transform="translate(301.5 748.617)"/>
</clipPath>
</defs>
</svg>
