<svg width="1500" height="1500" viewBox="300 560 850 420" fill="none" xmlns="http://www.w3.org/2000/svg">
<path d="M540.263 726.161V566.671H601.164C617.153 566.671 630.785 569.728 642.059 575.844C653.406 581.96 662.101 590.913 668.143 602.702C674.185 614.418 677.206 628.713 677.206 645.587V645.808C677.206 662.682 674.185 677.124 668.143 689.135C662.175 701.145 653.517 710.319 642.169 716.656C630.822 722.993 617.153 726.161 601.164 726.161H540.263ZM573.642 698.529H597.185C607.132 698.529 615.532 696.54 622.385 692.561C629.238 688.582 634.396 682.687 637.859 674.877C641.396 667.066 643.164 657.413 643.164 645.918V645.697C643.164 634.571 641.359 625.176 637.748 617.513C634.211 609.85 629.017 604.066 622.164 600.16C615.311 596.181 606.985 594.192 597.185 594.192H573.642V698.529ZM810.281 726.161L734.901 644.15C728.712 637.445 723.775 631.697 720.091 626.908C716.48 622.045 713.901 617.66 712.354 613.755C710.807 609.776 709.996 605.797 709.922 601.818V601.708C709.922 594.56 711.875 588.186 715.78 582.586C719.686 576.986 725.065 572.602 731.917 569.434C738.77 566.192 746.581 564.57 755.349 564.57C763.97 564.57 771.597 566.118 778.228 569.213C784.86 572.307 790.055 576.581 793.812 582.034C797.644 587.486 799.56 593.823 799.56 601.044V601.155C799.56 607.123 798.086 612.76 795.139 618.066C792.265 623.297 787.733 628.345 781.544 633.208C775.354 637.997 767.286 642.75 757.339 647.466L742.307 632.434C749.381 629.266 755.128 626.171 759.549 623.15C764.044 620.129 767.36 616.997 769.496 613.755C771.633 610.513 772.702 606.976 772.702 603.144V603.034C772.702 599.644 771.965 596.697 770.491 594.192C769.018 591.613 766.954 589.623 764.302 588.223C761.723 586.75 758.702 586.013 755.238 586.013C751.923 586.013 748.902 586.75 746.175 588.223C743.523 589.697 741.423 591.723 739.875 594.302C738.328 596.881 737.554 599.792 737.554 603.034V603.144C737.554 605.871 738.217 608.597 739.544 611.323C740.944 613.976 743.117 616.997 746.065 620.387C749.012 623.776 752.807 627.939 757.449 632.876L845.871 725.608V726.161H810.281ZM748.607 729.035C737.333 729.035 727.533 727.193 719.207 723.508C710.88 719.824 704.433 714.666 699.864 708.035C695.296 701.329 693.012 693.482 693.012 684.492V684.382C693.012 675.466 695.443 667.471 700.307 660.398C705.243 653.324 712.943 646.95 723.407 641.276L739.433 632.545L755.57 648.792L741.202 656.971C734.644 660.729 730.001 664.598 727.275 668.577C724.549 672.555 723.186 676.94 723.186 681.729V681.84C723.186 686.629 724.365 690.792 726.722 694.329C729.154 697.866 732.544 700.629 736.891 702.619C741.238 704.608 746.249 705.603 751.923 705.603C757.449 705.603 762.607 704.793 767.396 703.171C772.26 701.55 776.607 699.34 780.439 696.54C784.344 693.666 787.697 690.424 790.497 686.813C794.77 681.361 797.976 674.95 800.112 667.582C802.249 660.14 803.318 651.518 803.318 641.718V636.634H830.176V643.045C830.176 656.382 828.297 668.208 824.539 678.524C820.855 688.766 815.439 697.645 808.292 705.161C801.291 712.603 792.781 718.461 782.76 722.735C772.739 726.935 761.354 729.035 748.607 729.035ZM903.234 728.924C894.982 728.924 887.576 727.782 881.018 725.498C874.534 723.14 868.971 719.787 864.329 715.44C859.687 711.093 856.113 705.898 853.608 699.856C851.102 693.74 849.739 686.924 849.518 679.408L849.408 678.413H881.792L881.903 679.077C882.124 683.203 883.045 686.85 884.666 690.019C886.361 693.187 888.718 695.656 891.739 697.424C894.834 699.193 898.555 700.077 902.903 700.077C909.903 700.077 915.245 697.977 918.929 693.777C922.613 689.577 924.456 683.461 924.456 675.429V566.671H957.835V675.761C957.835 686.887 955.661 696.429 951.314 704.387C947.04 712.345 940.85 718.424 932.745 722.624C924.64 726.824 914.803 728.924 903.234 728.924Z" fill="#FF0800"/>
<g clip-path="url(#clip0_197_445)">
<path d="M308.574 874.615V789.554H341.054C349.582 789.554 356.852 791.184 362.865 794.446C368.917 797.708 373.554 802.483 376.776 808.771C379.999 815.019 381.61 822.643 381.61 831.642V831.76C381.61 840.76 379.999 848.462 376.776 854.868C373.593 861.273 368.976 866.166 362.924 869.546C356.872 872.925 349.582 874.615 341.054 874.615H308.574ZM326.376 859.878H338.932C344.237 859.878 348.717 858.817 352.372 856.695C356.027 854.573 358.778 851.429 360.625 847.263C362.511 843.098 363.454 837.95 363.454 831.819V831.701C363.454 825.767 362.491 820.757 360.566 816.67C358.679 812.583 355.909 809.498 352.254 807.415C348.599 805.293 344.159 804.232 338.932 804.232H326.376V859.878ZM394.916 874.615V789.554H451.27V804.232H412.718V824.628H449.089V838.539H412.718V859.937H451.27V874.615H394.916ZM465.931 874.615V789.554H483.734V859.937H520.93V874.615H465.931ZM542.783 874.615V804.232H518.202V789.554H585.225V804.232H560.585V874.615H542.783ZM580.021 874.615L609.731 789.554H625.411V806.059H619.988L598.708 874.615H580.021ZM595.996 853.984L600.358 840.661H640.03L644.392 853.984H595.996ZM641.622 874.615L620.342 806.059V789.554H630.657L660.308 874.615H641.622ZM754.254 874.615L714.052 830.876C710.751 827.3 708.118 824.235 706.153 821.68C704.227 819.086 702.852 816.748 702.027 814.665C701.201 812.543 700.769 810.421 700.73 808.299V808.24C700.73 804.428 701.771 801.029 703.854 798.042C705.937 795.055 708.806 792.717 712.46 791.027C716.115 789.298 720.281 788.434 724.957 788.434C729.555 788.434 733.623 789.259 737.16 790.909C740.696 792.56 743.467 794.839 745.471 797.747C747.515 800.655 748.537 804.035 748.537 807.886V807.945C748.537 811.128 747.751 814.135 746.179 816.964C744.646 819.754 742.229 822.446 738.928 825.04C735.627 827.595 731.324 830.129 726.018 832.644L718.002 824.628C721.774 822.938 724.84 821.287 727.197 819.676C729.595 818.065 731.363 816.394 732.503 814.665C733.642 812.936 734.212 811.05 734.212 809.006V808.947C734.212 807.14 733.819 805.568 733.033 804.232C732.247 802.856 731.147 801.795 729.732 801.048C728.357 800.262 726.745 799.869 724.898 799.869C723.13 799.869 721.519 800.262 720.065 801.048C718.65 801.834 717.53 802.915 716.705 804.291C715.879 805.666 715.467 807.218 715.467 808.947V809.006C715.467 810.46 715.82 811.914 716.528 813.368C717.275 814.783 718.434 816.394 720.006 818.202C721.578 820.01 723.602 822.23 726.077 824.863L773.236 874.32V874.615H754.254ZM721.362 876.148C715.349 876.148 710.122 875.165 705.681 873.2C701.241 871.236 697.802 868.485 695.366 864.948C692.929 861.372 691.711 857.186 691.711 852.392V852.333C691.711 847.578 693.008 843.314 695.601 839.541C698.234 835.769 702.341 832.369 707.921 829.343L716.469 824.686L725.075 833.352L717.412 837.714C713.915 839.718 711.439 841.781 709.985 843.903C708.531 846.026 707.804 848.364 707.804 850.918V850.977C707.804 853.532 708.432 855.752 709.69 857.638C710.987 859.525 712.795 860.998 715.113 862.059C717.432 863.12 720.104 863.651 723.13 863.651C726.077 863.651 728.828 863.219 731.383 862.354C733.976 861.49 736.295 860.311 738.339 858.817C740.421 857.285 742.209 855.555 743.703 853.63C745.982 850.722 747.692 847.303 748.831 843.373C749.971 839.404 750.541 834.806 750.541 829.579V826.868H764.865V830.286C764.865 837.4 763.863 843.707 761.859 849.209C759.894 854.671 757.005 859.407 753.193 863.415C749.46 867.384 744.921 870.509 739.576 872.788C734.232 875.028 728.16 876.148 721.362 876.148ZM826.937 876.089C822.536 876.089 818.586 875.48 815.089 874.262C811.63 873.004 808.663 871.216 806.187 868.897C803.712 866.579 801.806 863.808 800.47 860.586C799.133 857.324 798.406 853.689 798.288 849.68L798.23 849.15H815.501L815.56 849.503C815.678 851.704 816.169 853.649 817.034 855.339C817.938 857.029 819.195 858.346 820.807 859.289C822.457 860.232 824.442 860.704 826.76 860.704C830.494 860.704 833.343 859.584 835.308 857.344C837.273 855.104 838.255 851.842 838.255 847.558V789.554H856.057V847.735C856.057 853.669 854.898 858.758 852.579 863.003C850.3 867.247 846.999 870.489 842.676 872.729C838.353 874.969 833.107 876.089 826.937 876.089ZM908.386 876.089C901.116 876.089 894.809 874.772 889.464 872.139C884.159 869.506 880.033 865.832 877.085 861.116C874.177 856.361 872.723 850.84 872.723 844.552V789.554H890.525V842.96C890.525 846.615 891.213 849.798 892.588 852.51C894.003 855.182 896.027 857.265 898.66 858.758C901.332 860.252 904.574 860.998 908.386 860.998C912.198 860.998 915.421 860.252 918.054 858.758C920.726 857.265 922.75 855.182 924.126 852.51C925.501 849.798 926.189 846.615 926.189 842.96V789.554H943.991V844.552C943.991 850.84 942.537 856.361 939.629 861.116C936.76 865.832 932.653 869.506 927.309 872.139C922.003 874.772 915.696 876.089 908.386 876.089ZM960.008 874.615V789.554H977.81V859.937H1015.01V874.615H960.008ZM1027.37 874.615V789.554H1045.17V874.615H1027.37ZM1061.13 874.615V789.554H1117.48V804.232H1078.93V824.628H1115.3V838.539H1078.93V859.937H1117.48V874.615H1061.13ZM1152.48 874.615V804.232H1127.9V789.554H1194.92V804.232H1170.28V874.615H1152.48Z" fill="#FF0800"/>
<path d="M318.573 953.837V926.736H309.023V921.939H333.781V926.736H324.254V953.837H318.573ZM387.118 954.39C384.008 954.39 381.319 953.72 379.049 952.378C376.795 951.037 375.048 949.136 373.81 946.675C372.587 944.199 371.976 941.274 371.976 937.899V937.855C371.976 934.48 372.595 931.563 373.833 929.101C375.07 926.64 376.817 924.739 379.072 923.398C381.341 922.057 384.023 921.387 387.118 921.387C390.213 921.387 392.887 922.057 395.142 923.398C397.412 924.739 399.158 926.64 400.381 929.101C401.619 931.563 402.238 934.48 402.238 937.855V937.899C402.238 941.274 401.619 944.199 400.381 946.675C399.158 949.136 397.419 951.037 395.164 952.378C392.91 953.72 390.227 954.39 387.118 954.39ZM387.118 949.461C389.048 949.461 390.706 948.989 392.092 948.046C393.492 947.088 394.567 945.747 395.319 944.023C396.071 942.284 396.446 940.243 396.446 937.899V937.855C396.446 935.497 396.063 933.456 395.297 931.732C394.545 929.993 393.47 928.659 392.069 927.731C390.669 926.788 389.019 926.316 387.118 926.316C385.232 926.316 383.581 926.788 382.166 927.731C380.766 928.659 379.683 929.986 378.917 931.71C378.165 933.434 377.789 935.483 377.789 937.855V937.899C377.789 940.257 378.165 942.306 378.917 944.045C379.683 945.769 380.766 947.103 382.166 948.046C383.566 948.989 385.217 949.461 387.118 949.461ZM455.287 954.39C452.591 954.39 450.262 953.896 448.302 952.909C446.342 951.922 444.824 950.544 443.748 948.775C442.687 947.007 442.157 944.944 442.157 942.586V921.939H447.86V942.122C447.86 943.595 448.147 944.885 448.722 945.99C449.312 947.081 450.159 947.935 451.264 948.554C452.37 949.158 453.711 949.461 455.287 949.461C456.864 949.461 458.205 949.158 459.311 948.554C460.416 947.935 461.256 947.081 461.831 945.99C462.405 944.885 462.693 943.595 462.693 942.122V921.939H468.374V942.586C468.374 944.929 467.843 946.992 466.782 948.775C465.736 950.544 464.233 951.922 462.273 952.909C460.313 953.896 457.984 954.39 455.287 954.39ZM509.398 953.837V921.939H522.131C524.4 921.939 526.353 922.345 527.989 923.155C529.624 923.951 530.884 925.093 531.769 926.581C532.653 928.07 533.095 929.838 533.095 931.887V931.931C533.095 934.083 532.55 935.969 531.459 937.59C530.383 939.211 528.924 940.36 527.082 941.038L534.046 953.837H527.547L521.269 941.9C521.224 941.9 521.173 941.9 521.114 941.9C521.07 941.9 521.025 941.9 520.981 941.9H515.101V953.837H509.398ZM515.101 937.391H521.534C523.347 937.391 524.754 936.919 525.756 935.976C526.758 935.018 527.259 933.685 527.259 931.975V931.931C527.259 930.266 526.736 928.954 525.69 927.996C524.643 927.024 523.221 926.537 521.423 926.537H515.101V937.391ZM584.266 954.39C581.819 954.39 579.682 954.022 577.855 953.285C576.028 952.548 574.583 951.494 573.522 950.124C572.476 948.753 571.886 947.117 571.754 945.216L571.732 944.885H577.17L577.214 945.15C577.376 946.064 577.774 946.852 578.408 947.515C579.041 948.178 579.874 948.694 580.905 949.063C581.952 949.416 583.138 949.593 584.464 949.593C585.806 949.593 586.962 949.409 587.935 949.041C588.922 948.672 589.681 948.149 590.212 947.471C590.742 946.778 591.008 945.975 591.008 945.062V945.039C591.008 943.846 590.558 942.903 589.659 942.21C588.775 941.517 587.301 940.95 585.238 940.508L581.812 939.8C578.688 939.152 576.344 938.091 574.782 936.617C573.22 935.129 572.439 933.198 572.439 930.826V930.804C572.454 928.917 572.962 927.274 573.964 925.874C574.981 924.459 576.381 923.361 578.164 922.58C579.948 921.785 581.981 921.387 584.266 921.387C586.579 921.387 588.606 921.77 590.344 922.536C592.083 923.302 593.447 924.371 594.434 925.741C595.436 927.112 595.989 928.704 596.092 930.516L596.114 930.892H590.676L590.632 930.605C590.499 929.676 590.153 928.888 589.593 928.239C589.033 927.576 588.296 927.068 587.382 926.714C586.469 926.36 585.415 926.184 584.221 926.184C582.983 926.184 581.908 926.368 580.994 926.736C580.095 927.09 579.395 927.591 578.894 928.239C578.408 928.888 578.164 929.639 578.164 930.494V930.516C578.164 931.636 578.614 932.55 579.513 933.257C580.427 933.95 581.841 934.495 583.757 934.893L587.183 935.6C589.409 936.057 591.221 936.676 592.621 937.457C594.021 938.238 595.053 939.218 595.716 940.397C596.394 941.576 596.733 942.991 596.733 944.642V944.664C596.733 946.638 596.232 948.355 595.23 949.814C594.242 951.273 592.813 952.401 590.941 953.196C589.084 953.992 586.859 954.39 584.266 954.39Z" fill="#FF0800"/>
<path d="M698.138 953.837L682.709 937.015C681.559 935.748 680.631 934.657 679.923 933.744C679.231 932.815 678.73 931.96 678.42 931.179C678.126 930.398 677.971 929.61 677.956 928.814V928.792C677.956 927.392 678.332 926.139 679.083 925.034C679.835 923.929 680.867 923.059 682.178 922.426C683.49 921.792 684.986 921.475 686.666 921.475C688.331 921.475 689.805 921.785 691.087 922.403C692.369 923.008 693.378 923.855 694.115 924.946C694.852 926.021 695.22 927.274 695.22 928.704V928.726C695.22 929.89 694.94 930.98 694.38 931.997C693.835 933.014 692.951 934.001 691.728 934.959C690.519 935.903 688.92 936.853 686.931 937.811L684.234 935.092C685.737 934.399 686.938 933.736 687.837 933.103C688.751 932.469 689.414 931.828 689.827 931.179C690.254 930.516 690.468 929.794 690.468 929.013V928.991C690.468 928.269 690.306 927.635 689.981 927.09C689.657 926.545 689.208 926.117 688.633 925.808C688.073 925.498 687.417 925.344 686.666 925.344C685.929 925.344 685.273 925.506 684.698 925.83C684.123 926.139 683.667 926.574 683.328 927.134C683.003 927.679 682.841 928.313 682.841 929.035V929.057C682.841 929.617 682.981 930.177 683.261 930.737C683.541 931.297 683.976 931.924 684.566 932.616C685.155 933.309 685.914 934.149 686.842 935.136L704.416 953.727V953.837H698.138ZM685.494 954.39C683.298 954.39 681.375 954.022 679.724 953.285C678.074 952.533 676.792 951.487 675.878 950.146C674.979 948.805 674.53 947.243 674.53 945.459V945.437C674.53 943.61 675.031 941.989 676.033 940.574C677.035 939.145 678.582 937.863 680.675 936.728L683.659 935.114L686.511 938.032L683.792 939.579C682.348 940.405 681.316 941.252 680.697 942.122C680.093 942.991 679.791 943.949 679.791 944.995V945.017C679.791 946.049 680.049 946.955 680.564 947.736C681.095 948.517 681.832 949.129 682.775 949.571C683.718 949.998 684.809 950.212 686.047 950.212C687.226 950.212 688.316 950.05 689.318 949.726C690.32 949.402 691.219 948.945 692.015 948.355C692.826 947.766 693.518 947.073 694.093 946.277C694.933 945.143 695.567 943.794 695.994 942.232C696.421 940.67 696.635 938.887 696.635 936.883V935.888H701.388V937.059C701.388 939.712 701.027 942.085 700.305 944.177C699.597 946.255 698.573 948.046 697.232 949.549C695.861 951.082 694.189 952.275 692.214 953.13C690.239 953.97 687.999 954.39 685.494 954.39Z" fill="#FF0800"/>
<path d="M783.329 953.348V926.247H773.78V921.45H798.538V926.247H789.01V953.348H783.329ZM837.816 953.348V921.45H850.548C852.818 921.45 854.771 921.855 856.406 922.666C858.042 923.462 859.302 924.604 860.186 926.092C861.071 927.581 861.513 929.349 861.513 931.397V931.442C861.513 933.593 860.967 935.48 859.877 937.101C858.801 938.722 857.342 939.871 855.5 940.549L862.463 953.348H855.964L849.686 941.411C849.642 941.411 849.59 941.411 849.532 941.411C849.487 941.411 849.443 941.411 849.399 941.411H843.519V953.348H837.816ZM843.519 936.902H849.952C851.764 936.902 853.172 936.43 854.174 935.487C855.176 934.529 855.677 933.195 855.677 931.486V931.442C855.677 929.776 855.154 928.465 854.107 927.507C853.061 926.534 851.639 926.048 849.841 926.048H843.519V936.902ZM899.265 953.348L910.672 921.45H915.468V927.131H913.811L905.234 953.348H899.265ZM905.035 945.103L906.56 940.704H921.172L922.697 945.103H905.035ZM922.498 953.348L913.921 927.131V921.45H917.082L928.466 953.348H922.498ZM976.122 953.348L965.047 921.45H971.259L979.35 947.269H979.46L987.573 921.45H993.784L982.71 953.348H976.122ZM1032.55 953.348V921.45H1053.2V926.247H1038.26V934.846H1052.38V939.444H1038.26V948.551H1053.2V953.348H1032.55ZM1093.52 953.348V921.45H1099.22V948.551H1113.68V953.348H1093.52ZM1164.36 953.901C1161.92 953.901 1159.78 953.532 1157.95 952.796C1156.12 952.059 1154.68 951.005 1153.62 949.634C1152.57 948.264 1151.98 946.628 1151.85 944.727L1151.83 944.395H1157.27L1157.31 944.661C1157.47 945.574 1157.87 946.363 1158.5 947.026C1159.14 947.689 1159.97 948.205 1161 948.573C1162.05 948.927 1163.23 949.104 1164.56 949.104C1165.9 949.104 1167.06 948.92 1168.03 948.551C1169.02 948.183 1169.78 947.66 1170.31 946.982C1170.84 946.289 1171.1 945.486 1171.1 944.572V944.55C1171.1 943.356 1170.65 942.413 1169.76 941.721C1168.87 941.028 1167.4 940.461 1165.33 940.019L1161.91 939.311C1158.78 938.663 1156.44 937.602 1154.88 936.128C1153.32 934.64 1152.53 932.709 1152.53 930.336V930.314C1152.55 928.428 1153.06 926.785 1154.06 925.385C1155.08 923.97 1156.48 922.872 1158.26 922.091C1160.04 921.295 1162.08 920.897 1164.36 920.897C1166.68 920.897 1168.7 921.281 1170.44 922.047C1172.18 922.813 1173.54 923.882 1174.53 925.252C1175.53 926.623 1176.08 928.214 1176.19 930.027L1176.21 930.403H1170.77L1170.73 930.115C1170.6 929.187 1170.25 928.398 1169.69 927.75C1169.13 927.087 1168.39 926.578 1167.48 926.225C1166.56 925.871 1165.51 925.694 1164.32 925.694C1163.08 925.694 1162 925.878 1161.09 926.247C1160.19 926.601 1159.49 927.102 1158.99 927.75C1158.5 928.398 1158.26 929.15 1158.26 930.005V930.027C1158.26 931.147 1158.71 932.061 1159.61 932.768C1160.52 933.461 1161.94 934.006 1163.85 934.404L1167.28 935.111C1169.5 935.568 1171.32 936.187 1172.72 936.968C1174.12 937.749 1175.15 938.729 1175.81 939.908C1176.49 941.087 1176.83 942.502 1176.83 944.152V944.174C1176.83 946.149 1176.33 947.866 1175.33 949.325C1174.34 950.784 1172.91 951.911 1171.04 952.707C1169.18 953.503 1166.96 953.901 1164.36 953.901Z" fill="#FF0800"/>
</g>
<defs>
<clipPath id="clip0_197_445">
<rect width="897" height="220.222" fill="white" transform="translate(301.5 748.616)"/>
</clipPath>
</defs>
</svg>
